<mxfile host="app.diagrams.net" agent="Mozilla/5.0 (Windows NT 10.0; Win64; x64) AppleWebKit/537.36 (KHTML, like Gecko) Chrome/128.0.0.0 Safari/537.36 Edg/128.0.0.0" version="24.7.10" pages="6">
  <diagram name="Main Interface" id="EbF2326kZMwRx8eMUAS_">
    <mxGraphModel dx="3084" dy="2024" grid="1" gridSize="6" guides="1" tooltips="1" connect="1" arrows="1" fold="1" page="1" pageScale="1" pageWidth="2336" pageHeight="1654" background="none" math="0" shadow="0">
      <root>
        <mxCell id="0" />
        <mxCell id="1" parent="0" />
        <mxCell id="XUUatiIXPWmPjCgq8tIr-1" value="" style="rounded=0;whiteSpace=wrap;html=1;fillColor=#1A1A1A;strokeColor=#36393d;" parent="1" vertex="1">
          <mxGeometry x="30" y="36" width="2274" height="1578" as="geometry" />
        </mxCell>
        <mxCell id="xzuJ9RJnWOzTokdqVB3_-3" value="&lt;font color=&quot;#ffffff&quot; size=&quot;1&quot; style=&quot;&quot;&gt;&lt;b style=&quot;font-size: 80px;&quot;&gt;Display the most Trending products randomly&lt;/b&gt;&lt;/font&gt;" style="text;html=1;align=center;verticalAlign=middle;whiteSpace=wrap;rounded=0;" parent="1" vertex="1">
          <mxGeometry x="420" y="1212" width="1857" height="258" as="geometry" />
        </mxCell>
        <mxCell id="VBo3vPaSQrfKRQS8rtGB-1" value="" style="rounded=0;whiteSpace=wrap;html=1;fillColor=#333333;" vertex="1" parent="1">
          <mxGeometry x="30" y="39" width="2275" height="243" as="geometry" />
        </mxCell>
        <UserObject label="&lt;span style=&quot;font-size: 52px;&quot;&gt;&lt;b&gt;&lt;font color=&quot;#33ff33&quot;&gt;Login&lt;span style=&quot;white-space: pre;&quot;&gt;&#x9;&lt;/span&gt;Create Account&lt;/font&gt;&lt;/b&gt;&lt;/span&gt;" link="data:page/id,59rd_4bV0ZtgQvLaxmSP" id="xzuJ9RJnWOzTokdqVB3_-4">
          <mxCell style="text;html=1;align=center;verticalAlign=middle;whiteSpace=wrap;rounded=0;fillColor=none;strokeColor=#36393d;" parent="1" vertex="1">
            <mxGeometry x="1526" y="83" width="726" height="172" as="geometry" />
          </mxCell>
        </UserObject>
        <UserObject label="&lt;font color=&quot;#b3b3b3&quot; style=&quot;font-size: 42px;&quot;&gt;&amp;nbsp; &amp;nbsp;search&lt;/font&gt;" link="data:page/id,WPZn62eoKK8UrivS1Dtk" id="6lLXzWwEAh-M-BNG1uh3-1">
          <mxCell style="rounded=1;whiteSpace=wrap;html=1;align=left;fillColor=#000000;strokeColor=#6c8ebf;" parent="1" vertex="1">
            <mxGeometry x="742" y="110" width="762" height="108" as="geometry" />
          </mxCell>
        </UserObject>
        <mxCell id="VBo3vPaSQrfKRQS8rtGB-2" value="" style="rounded=0;whiteSpace=wrap;html=1;fillColor=#333333;" vertex="1" parent="1">
          <mxGeometry x="34" y="276" width="350" height="1332" as="geometry" />
        </mxCell>
        <mxCell id="N-gZQHD46hhp4akGLY67-2" value="&lt;font color=&quot;#00ff00&quot; style=&quot;font-size: 92px;&quot;&gt;Market Name&lt;/font&gt;" style="text;html=1;align=center;verticalAlign=middle;whiteSpace=wrap;rounded=0;" vertex="1" parent="1">
          <mxGeometry x="29" y="44" width="672" height="252" as="geometry" />
        </mxCell>
        <mxCell id="VBo3vPaSQrfKRQS8rtGB-3" value="&lt;font color=&quot;#33ff33&quot; size=&quot;1&quot; style=&quot;&quot;&gt;&lt;b style=&quot;font-size: 80px;&quot;&gt;Top Trending&lt;/b&gt;&lt;/font&gt;" style="text;html=1;align=center;verticalAlign=middle;whiteSpace=wrap;rounded=0;" vertex="1" parent="1">
          <mxGeometry x="393" y="1035" width="594" height="204" as="geometry" />
        </mxCell>
        <mxCell id="U8epDHk4wiHV-I5X7zq0-1" value="&lt;font color=&quot;#ffffff&quot; size=&quot;1&quot; style=&quot;&quot;&gt;&lt;b style=&quot;font-size: 40px;&quot;&gt;Display categories&amp;nbsp;&lt;/b&gt;&lt;/font&gt;" style="text;html=1;align=center;verticalAlign=middle;whiteSpace=wrap;rounded=0;" vertex="1" parent="1">
          <mxGeometry x="48" y="306" width="324" height="200" as="geometry" />
        </mxCell>
        <mxCell id="VBo3vPaSQrfKRQS8rtGB-5" value="&lt;font color=&quot;#33ff33&quot; size=&quot;1&quot; style=&quot;&quot;&gt;&lt;b style=&quot;font-size: 80px;&quot;&gt;Top Offers&lt;/b&gt;&lt;/font&gt;" style="text;html=1;align=center;verticalAlign=middle;whiteSpace=wrap;rounded=0;" vertex="1" parent="1">
          <mxGeometry x="382" y="280" width="594" height="204" as="geometry" />
        </mxCell>
        <mxCell id="U8epDHk4wiHV-I5X7zq0-2" value="" style="rounded=1;whiteSpace=wrap;html=1;fillColor=#333333;" vertex="1" parent="1">
          <mxGeometry x="436" y="474" width="433.97071129707115" height="524.15" as="geometry" />
        </mxCell>
        <mxCell id="U8epDHk4wiHV-I5X7zq0-3" value="" style="rounded=1;whiteSpace=wrap;html=1;fillColor=#333333;" vertex="1" parent="1">
          <mxGeometry x="894.3933054393306" y="474" width="433.97071129707115" height="524.15" as="geometry" />
        </mxCell>
        <mxCell id="U8epDHk4wiHV-I5X7zq0-4" value="" style="rounded=1;whiteSpace=wrap;html=1;fillColor=#333333;" vertex="1" parent="1">
          <mxGeometry x="1350.907949790795" y="474" width="433.97071129707115" height="524.15" as="geometry" />
        </mxCell>
        <mxCell id="U8epDHk4wiHV-I5X7zq0-5" value="" style="rounded=1;whiteSpace=wrap;html=1;fillColor=#333333;" vertex="1" parent="1">
          <mxGeometry x="1798.0292887029289" y="474" width="433.97071129707115" height="524.15" as="geometry" />
        </mxCell>
      </root>
    </mxGraphModel>
  </diagram>
  <diagram id="59rd_4bV0ZtgQvLaxmSP" name="Login dialog">
    <mxGraphModel dx="643" dy="422" grid="1" gridSize="6" guides="1" tooltips="1" connect="1" arrows="1" fold="1" page="1" pageScale="1" pageWidth="400" pageHeight="420" background="#D4E1F5" math="0" shadow="0">
      <root>
        <mxCell id="0" />
        <mxCell id="1" parent="0" />
        <mxCell id="x1iLHMzqx-KYeWFBfRGT-2" value="" style="rounded=1;whiteSpace=wrap;html=1;" parent="1" vertex="1">
          <mxGeometry x="110" y="168" width="180" height="24" as="geometry" />
        </mxCell>
        <mxCell id="x1iLHMzqx-KYeWFBfRGT-3" value="" style="rounded=1;whiteSpace=wrap;html=1;" parent="1" vertex="1">
          <mxGeometry x="110" y="210" width="180" height="24" as="geometry" />
        </mxCell>
        <mxCell id="rf-HVW4D9Cupzn0DavtZ-1" value="&lt;font color=&quot;#808080&quot; style=&quot;font-size: 11px;&quot;&gt;Enter Username&amp;nbsp;&lt;/font&gt;" style="text;html=1;align=center;verticalAlign=middle;whiteSpace=wrap;rounded=0;" parent="1" vertex="1">
          <mxGeometry x="126" y="168" width="144" height="24" as="geometry" />
        </mxCell>
        <mxCell id="rf-HVW4D9Cupzn0DavtZ-2" value="&lt;font color=&quot;#666666&quot; style=&quot;font-size: 11px;&quot;&gt;Enter Password&amp;nbsp;&lt;/font&gt;" style="text;html=1;align=center;verticalAlign=middle;whiteSpace=wrap;rounded=0;" parent="1" vertex="1">
          <mxGeometry x="128" y="210" width="144" height="24" as="geometry" />
        </mxCell>
        <mxCell id="rf-HVW4D9Cupzn0DavtZ-3" value="&lt;b&gt;Login or create account page&lt;/b&gt;" style="text;html=1;align=center;verticalAlign=middle;whiteSpace=wrap;rounded=0;" parent="1" vertex="1">
          <mxGeometry x="128" y="60" width="150" height="48" as="geometry" />
        </mxCell>
        <UserObject label="&lt;span style=&quot;color: rgb(0, 0, 255);&quot;&gt;Submit&lt;/span&gt;" id="rf-HVW4D9Cupzn0DavtZ-4">
          <mxCell style="rounded=1;whiteSpace=wrap;html=1;" parent="1" vertex="1">
            <mxGeometry x="173" y="282" width="54" height="24" as="geometry" />
          </mxCell>
        </UserObject>
        <mxCell id="j0CuDSuO1qwXUcyolXVN-12" value="" style="group" vertex="1" connectable="0" parent="1">
          <mxGeometry x="23" y="13" width="48" height="50" as="geometry" />
        </mxCell>
        <mxCell id="j0CuDSuO1qwXUcyolXVN-6" value="" style="ellipse;whiteSpace=wrap;html=1;aspect=fixed;movable=1;resizable=1;rotatable=1;deletable=1;editable=1;locked=0;connectable=1;" vertex="1" parent="j0CuDSuO1qwXUcyolXVN-12">
          <mxGeometry width="48" height="48" as="geometry" />
        </mxCell>
        <mxCell id="j0CuDSuO1qwXUcyolXVN-9" value="" style="endArrow=classic;html=1;rounded=0;strokeWidth=4;movable=1;resizable=1;rotatable=1;deletable=1;editable=1;locked=0;connectable=1;" edge="1" parent="j0CuDSuO1qwXUcyolXVN-12">
          <mxGeometry width="50" height="50" relative="1" as="geometry">
            <mxPoint x="38.666666666666664" y="24.833333333333336" as="sourcePoint" />
            <mxPoint x="6.666666666666667" y="24.833333333333336" as="targetPoint" />
          </mxGeometry>
        </mxCell>
      </root>
    </mxGraphModel>
  </diagram>
  <diagram id="WPZn62eoKK8UrivS1Dtk" name="Items Display">
    <mxGraphModel dx="1285" dy="843" grid="1" gridSize="6" guides="1" tooltips="1" connect="1" arrows="1" fold="1" page="1" pageScale="1" pageWidth="1169" pageHeight="827" background="#FFF4C3" math="0" shadow="0">
      <root>
        <mxCell id="0" />
        <mxCell id="1" parent="0" />
        <mxCell id="tSSSgCkePqcqIxtd7b1e-1" value="Filter by&amp;nbsp;" style="rounded=0;whiteSpace=wrap;html=1;" parent="1" vertex="1">
          <mxGeometry x="24" y="12" width="1128" height="84" as="geometry" />
        </mxCell>
        <mxCell id="Uzx6i72pVEPGWRt_Njh_-1" value="" style="group" vertex="1" connectable="0" parent="1">
          <mxGeometry x="18" y="108" width="48" height="50" as="geometry" />
        </mxCell>
        <mxCell id="Uzx6i72pVEPGWRt_Njh_-2" value="" style="ellipse;whiteSpace=wrap;html=1;aspect=fixed;movable=1;resizable=1;rotatable=1;deletable=1;editable=1;locked=0;connectable=1;" vertex="1" parent="Uzx6i72pVEPGWRt_Njh_-1">
          <mxGeometry width="48" height="48" as="geometry" />
        </mxCell>
        <mxCell id="Uzx6i72pVEPGWRt_Njh_-3" value="" style="endArrow=classic;html=1;rounded=0;strokeWidth=4;movable=1;resizable=1;rotatable=1;deletable=1;editable=1;locked=0;connectable=1;" edge="1" parent="Uzx6i72pVEPGWRt_Njh_-1">
          <mxGeometry width="50" height="50" relative="1" as="geometry">
            <mxPoint x="38.666666666666664" y="24.833333333333336" as="sourcePoint" />
            <mxPoint x="6.666666666666667" y="24.833333333333336" as="targetPoint" />
          </mxGeometry>
        </mxCell>
      </root>
    </mxGraphModel>
  </diagram>
  <diagram id="pFgOeBAD-N0XeRKWl_8A" name="Specific Item Display">
    <mxGraphModel dx="771" dy="506" grid="1" gridSize="6" guides="1" tooltips="1" connect="1" arrows="1" fold="1" page="1" pageScale="1" pageWidth="827" pageHeight="583" background="#D4E1F5" math="0" shadow="0">
      <root>
        <mxCell id="0" />
        <mxCell id="1" parent="0" />
        <mxCell id="TpgmQ5fFr3FhhFVrTgOk-1" value="&lt;font color=&quot;#ffffff&quot; style=&quot;font-size: 42px;&quot;&gt;&lt;b&gt;Image&lt;/b&gt;&lt;/font&gt;" style="rounded=0;whiteSpace=wrap;html=1;fillColor=#d80073;strokeColor=#A50040;fontColor=#ffffff;" parent="1" vertex="1">
          <mxGeometry x="41" y="20" width="228" height="252" as="geometry" />
        </mxCell>
        <mxCell id="TpgmQ5fFr3FhhFVrTgOk-2" value="&lt;font style=&quot;font-size: 35px;&quot;&gt;&lt;b style=&quot;&quot;&gt;Name&lt;/b&gt;&lt;/font&gt;&lt;div style=&quot;font-size: 35px;&quot;&gt;&lt;font style=&quot;font-size: 35px;&quot;&gt;&lt;b style=&quot;&quot;&gt;Price&lt;span style=&quot;white-space: pre;&quot;&gt;&#x9;&lt;span style=&quot;white-space: pre;&quot;&gt;&#x9;&lt;/span&gt;&lt;/span&gt;EGP&lt;/b&gt;&lt;/font&gt;&lt;/div&gt;&lt;div style=&quot;font-size: 35px;&quot;&gt;&lt;b&gt;&lt;font style=&quot;font-size: 35px;&quot;&gt;Company&lt;/font&gt;&lt;/b&gt;&lt;/div&gt;&lt;div style=&quot;font-size: 35px;&quot;&gt;&lt;b&gt;&lt;font style=&quot;font-size: 35px;&quot;&gt;Discount&lt;/font&gt;&lt;/b&gt;&lt;/div&gt;&lt;div style=&quot;font-size: 35px;&quot;&gt;&lt;b style=&quot;&quot;&gt;&lt;font style=&quot;font-size: 35px;&quot;&gt;Available remaining&amp;nbsp;&lt;/font&gt;&lt;/b&gt;&lt;/div&gt;" style="text;html=1;align=left;verticalAlign=middle;whiteSpace=wrap;rounded=0;" parent="1" vertex="1">
          <mxGeometry x="288" y="20" width="474" height="244" as="geometry" />
        </mxCell>
        <mxCell id="TpgmQ5fFr3FhhFVrTgOk-3" value="&lt;font size=&quot;1&quot; style=&quot;&quot;&gt;&lt;b style=&quot;font-size: 40px;&quot;&gt;Description&lt;/b&gt;&lt;/font&gt;" style="rounded=0;whiteSpace=wrap;html=1;fillColor=#dae8fc;strokeColor=#6c8ebf;" parent="1" vertex="1">
          <mxGeometry x="42" y="360" width="738" height="204" as="geometry" />
        </mxCell>
        <mxCell id="TpgmQ5fFr3FhhFVrTgOk-4" value="&lt;font size=&quot;1&quot; style=&quot;&quot;&gt;&lt;b style=&quot;font-size: 30px;&quot;&gt;Rate&lt;/b&gt;&lt;/font&gt;" style="text;html=1;align=center;verticalAlign=middle;whiteSpace=wrap;rounded=0;" parent="1" vertex="1">
          <mxGeometry x="86" y="272" width="142" height="58" as="geometry" />
        </mxCell>
        <mxCell id="SOolD-1jZnSDaNB61UOm-1" value="" style="group" vertex="1" connectable="0" parent="1">
          <mxGeometry x="12" y="13" width="48" height="50" as="geometry" />
        </mxCell>
        <mxCell id="SOolD-1jZnSDaNB61UOm-2" value="" style="ellipse;whiteSpace=wrap;html=1;aspect=fixed;movable=1;resizable=1;rotatable=1;deletable=1;editable=1;locked=0;connectable=1;" vertex="1" parent="SOolD-1jZnSDaNB61UOm-1">
          <mxGeometry width="48" height="48" as="geometry" />
        </mxCell>
        <mxCell id="SOolD-1jZnSDaNB61UOm-3" value="" style="endArrow=classic;html=1;rounded=0;strokeWidth=4;movable=1;resizable=1;rotatable=1;deletable=1;editable=1;locked=0;connectable=1;" edge="1" parent="SOolD-1jZnSDaNB61UOm-1">
          <mxGeometry width="50" height="50" relative="1" as="geometry">
            <mxPoint x="38.666666666666664" y="24.833333333333336" as="sourcePoint" />
            <mxPoint x="6.666666666666667" y="24.833333333333336" as="targetPoint" />
          </mxGeometry>
        </mxCell>
      </root>
    </mxGraphModel>
  </diagram>
  <diagram id="BgCEZD6uOb7x0Q_nauwx" name="User Profile">
    <mxGraphModel dx="771" dy="506" grid="1" gridSize="6" guides="1" tooltips="1" connect="1" arrows="1" fold="1" page="1" pageScale="1" pageWidth="583" pageHeight="827" background="#FFF4C3" math="0" shadow="0">
      <root>
        <mxCell id="0" />
        <mxCell id="1" parent="0" />
        <mxCell id="rttZavr03ZK6qaGmpAeC-1" value="&lt;font style=&quot;font-size: 30px;&quot;&gt;Name (Username)&lt;/font&gt;" style="text;html=1;align=center;verticalAlign=middle;whiteSpace=wrap;rounded=0;" parent="1" vertex="1">
          <mxGeometry x="18" y="72" width="282" height="54" as="geometry" />
        </mxCell>
        <mxCell id="eghzk9UouTgf2mmaaAtm-1" value="" style="group" vertex="1" connectable="0" parent="1">
          <mxGeometry x="18" y="13" width="48" height="50" as="geometry" />
        </mxCell>
        <mxCell id="eghzk9UouTgf2mmaaAtm-2" value="" style="ellipse;whiteSpace=wrap;html=1;aspect=fixed;movable=1;resizable=1;rotatable=1;deletable=1;editable=1;locked=0;connectable=1;" vertex="1" parent="eghzk9UouTgf2mmaaAtm-1">
          <mxGeometry width="48" height="48" as="geometry" />
        </mxCell>
        <mxCell id="eghzk9UouTgf2mmaaAtm-3" value="" style="endArrow=classic;html=1;rounded=0;strokeWidth=4;movable=1;resizable=1;rotatable=1;deletable=1;editable=1;locked=0;connectable=1;" edge="1" parent="eghzk9UouTgf2mmaaAtm-1">
          <mxGeometry width="50" height="50" relative="1" as="geometry">
            <mxPoint x="38.666666666666664" y="24.833333333333336" as="sourcePoint" />
            <mxPoint x="6.666666666666667" y="24.833333333333336" as="targetPoint" />
          </mxGeometry>
        </mxCell>
      </root>
    </mxGraphModel>
  </diagram>
  <diagram id="L76k-m5T1vzcg4Wdmafv" name="cart &amp; checkout ">
    <mxGraphModel dx="771" dy="506" grid="1" gridSize="10" guides="1" tooltips="1" connect="1" arrows="1" fold="1" page="1" pageScale="1" pageWidth="583" pageHeight="827" math="0" shadow="0">
      <root>
        <mxCell id="0" />
        <mxCell id="1" parent="0" />
      </root>
    </mxGraphModel>
  </diagram>
</mxfile>
